<mxfile host="Electron" modified="2023-06-18T18:11:55.843Z" agent="Mozilla/5.0 (Windows NT 10.0; Win64; x64) AppleWebKit/537.36 (KHTML, like Gecko) draw.io/21.4.0 Chrome/112.0.5615.204 Electron/24.5.1 Safari/537.36" etag="bwjavkMporZgQlEqyA8g" version="21.4.0" type="device" pages="2">
  <diagram name="Giải pháp xử lý trực tiếp" id="_1JutZrFOUFx9ZxkPXG2">
    <mxGraphModel dx="1418" dy="820" grid="1" gridSize="10" guides="1" tooltips="1" connect="1" arrows="1" fold="1" page="1" pageScale="1" pageWidth="850" pageHeight="1100" math="0" shadow="0">
      <root>
        <mxCell id="0" />
        <mxCell id="1" parent="0" />
        <mxCell id="RKijaVEDEiDn9Vy7ATZa-1" value="SyncContactSearchWorker" style="swimlane;whiteSpace=wrap;html=1;startSize=30;" parent="1" vertex="1">
          <mxGeometry x="240" y="190" width="360" height="250" as="geometry" />
        </mxCell>
        <object placeholders="1" c4Name="WatchContactService" c4Type="Component" c4Technology="BackgroundService" c4Description="Đồng bộ thay đổi trong collection contact vào index search_contact" label="&lt;font style=&quot;font-size: 16px&quot;&gt;&lt;b&gt;%c4Name%&lt;/b&gt;&lt;/font&gt;&lt;div&gt;[%c4Type%: %c4Technology%]&lt;/div&gt;&lt;br&gt;&lt;div&gt;&lt;font style=&quot;font-size: 11px&quot;&gt;%c4Description%&lt;/font&gt;&lt;/div&gt;" id="RKijaVEDEiDn9Vy7ATZa-2">
          <mxCell style="rounded=1;whiteSpace=wrap;html=1;labelBackgroundColor=none;fillColor=#63BEF2;fontColor=#ffffff;align=center;arcSize=6;strokeColor=#2086C9;metaEdit=1;resizable=0;points=[[0.25,0,0],[0.5,0,0],[0.75,0,0],[1,0.25,0],[1,0.5,0],[1,0.75,0],[0.75,1,0],[0.5,1,0],[0.25,1,0],[0,0.75,0],[0,0.5,0],[0,0.25,0]];" parent="RKijaVEDEiDn9Vy7ATZa-1" vertex="1">
            <mxGeometry x="60" y="80" width="240" height="120" as="geometry" />
          </mxCell>
        </object>
        <mxCell id="RKijaVEDEiDn9Vy7ATZa-3" value="aim_contact.contact&lt;br&gt;[MongoDB]" style="strokeWidth=2;html=1;shape=mxgraph.flowchart.database;whiteSpace=wrap;" parent="1" vertex="1">
          <mxGeometry x="40" y="272.5" width="120" height="140" as="geometry" />
        </mxCell>
        <mxCell id="RKijaVEDEiDn9Vy7ATZa-4" value="aim_search_contact&lt;br&gt;[Elasticsearch]" style="strokeWidth=2;html=1;shape=mxgraph.flowchart.database;whiteSpace=wrap;" parent="1" vertex="1">
          <mxGeometry x="670" y="270" width="120" height="145" as="geometry" />
        </mxCell>
        <object placeholders="1" c4Type="Relationship" id="RKijaVEDEiDn9Vy7ATZa-5">
          <mxCell style="endArrow=blockThin;html=1;fontSize=10;fontColor=#404040;strokeWidth=1;endFill=1;strokeColor=#828282;elbow=vertical;metaEdit=1;endSize=14;startSize=14;jumpStyle=arc;jumpSize=16;rounded=0;edgeStyle=orthogonalEdgeStyle;exitX=-0.008;exitY=0.392;exitDx=0;exitDy=0;exitPerimeter=0;" parent="1" source="RKijaVEDEiDn9Vy7ATZa-2" edge="1">
            <mxGeometry width="240" relative="1" as="geometry">
              <mxPoint x="110" y="500" as="sourcePoint" />
              <mxPoint x="160" y="317" as="targetPoint" />
            </mxGeometry>
          </mxCell>
        </object>
        <mxCell id="RKijaVEDEiDn9Vy7ATZa-6" value="watch" style="edgeLabel;html=1;align=center;verticalAlign=middle;resizable=0;points=[];" parent="RKijaVEDEiDn9Vy7ATZa-5" vertex="1" connectable="0">
          <mxGeometry x="0.171" y="-2" relative="1" as="geometry">
            <mxPoint as="offset" />
          </mxGeometry>
        </mxCell>
        <object placeholders="1" c4Type="Relationship" id="RKijaVEDEiDn9Vy7ATZa-7">
          <mxCell style="endArrow=blockThin;html=1;fontSize=10;fontColor=#404040;strokeWidth=1;endFill=1;strokeColor=#828282;elbow=vertical;metaEdit=1;endSize=14;startSize=14;jumpStyle=arc;jumpSize=16;rounded=0;edgeStyle=orthogonalEdgeStyle;exitX=1.008;exitY=0.704;exitDx=0;exitDy=0;exitPerimeter=0;" parent="1" source="RKijaVEDEiDn9Vy7ATZa-3" edge="1">
            <mxGeometry width="240" relative="1" as="geometry">
              <mxPoint x="130" y="530" as="sourcePoint" />
              <mxPoint x="300" y="371" as="targetPoint" />
            </mxGeometry>
          </mxCell>
        </object>
        <mxCell id="RKijaVEDEiDn9Vy7ATZa-8" value="event" style="edgeLabel;html=1;align=center;verticalAlign=middle;resizable=0;points=[];" parent="RKijaVEDEiDn9Vy7ATZa-7" vertex="1" connectable="0">
          <mxGeometry x="-0.1532" y="2" relative="1" as="geometry">
            <mxPoint as="offset" />
          </mxGeometry>
        </mxCell>
        <object placeholders="1" c4Type="Relationship" id="RKijaVEDEiDn9Vy7ATZa-9">
          <mxCell style="endArrow=blockThin;html=1;fontSize=10;fontColor=#404040;strokeWidth=1;endFill=1;strokeColor=#828282;elbow=vertical;metaEdit=1;endSize=14;startSize=14;jumpStyle=arc;jumpSize=16;rounded=0;edgeStyle=orthogonalEdgeStyle;exitX=1;exitY=0.583;exitDx=0;exitDy=0;exitPerimeter=0;" parent="1" source="RKijaVEDEiDn9Vy7ATZa-2" edge="1">
            <mxGeometry width="240" relative="1" as="geometry">
              <mxPoint x="530" y="560" as="sourcePoint" />
              <mxPoint x="670" y="340" as="targetPoint" />
            </mxGeometry>
          </mxCell>
        </object>
        <mxCell id="RKijaVEDEiDn9Vy7ATZa-10" value="bulk" style="edgeLabel;html=1;align=center;verticalAlign=middle;resizable=0;points=[];" parent="RKijaVEDEiDn9Vy7ATZa-9" vertex="1" connectable="0">
          <mxGeometry x="0.2642" y="-2" relative="1" as="geometry">
            <mxPoint as="offset" />
          </mxGeometry>
        </mxCell>
      </root>
    </mxGraphModel>
  </diagram>
  <diagram id="M7kd8LU6doUur4t1HKju" name="Giải pháp xử lý gián tiếp">
    <mxGraphModel dx="1418" dy="820" grid="1" gridSize="10" guides="1" tooltips="1" connect="1" arrows="1" fold="1" page="1" pageScale="1" pageWidth="850" pageHeight="1100" math="0" shadow="0">
      <root>
        <mxCell id="0" />
        <mxCell id="1" parent="0" />
        <mxCell id="HnjWuw0NQ6Y7B58xEVIn-1" value="SyncContactSearchWorker" style="swimlane;whiteSpace=wrap;html=1;startSize=30;" vertex="1" parent="1">
          <mxGeometry x="245" y="190" width="360" height="620" as="geometry" />
        </mxCell>
        <object placeholders="1" c4Name="WatchContactService" c4Type="Component" c4Technology="BackgroundService" c4Description="Đồng bộ thay đổi trong collection contact đẩy vào kafka" label="&lt;font style=&quot;font-size: 16px&quot;&gt;&lt;b&gt;%c4Name%&lt;/b&gt;&lt;/font&gt;&lt;div&gt;[%c4Type%: %c4Technology%]&lt;/div&gt;&lt;br&gt;&lt;div&gt;&lt;font style=&quot;font-size: 11px&quot;&gt;%c4Description%&lt;/font&gt;&lt;/div&gt;" id="HnjWuw0NQ6Y7B58xEVIn-2">
          <mxCell style="rounded=1;whiteSpace=wrap;html=1;labelBackgroundColor=none;fillColor=#63BEF2;fontColor=#ffffff;align=center;arcSize=6;strokeColor=#2086C9;metaEdit=1;resizable=0;points=[[0.25,0,0],[0.5,0,0],[0.75,0,0],[1,0.25,0],[1,0.5,0],[1,0.75,0],[0.75,1,0],[0.5,1,0],[0.25,1,0],[0,0.75,0],[0,0.5,0],[0,0.25,0]];" vertex="1" parent="HnjWuw0NQ6Y7B58xEVIn-1">
            <mxGeometry x="60" y="50" width="240" height="120" as="geometry" />
          </mxCell>
        </object>
        <object placeholders="1" c4Name="WatchContactConsumerService" c4Type="Component" c4Technology="BackgroundService" c4Description="Đọc sự kiện từ trong kafka và xử lý" label="&lt;font style=&quot;font-size: 16px&quot;&gt;&lt;b&gt;%c4Name%&lt;/b&gt;&lt;/font&gt;&lt;div&gt;[%c4Type%: %c4Technology%]&lt;/div&gt;&lt;br&gt;&lt;div&gt;&lt;font style=&quot;font-size: 11px&quot;&gt;%c4Description%&lt;/font&gt;&lt;/div&gt;" id="HnjWuw0NQ6Y7B58xEVIn-11">
          <mxCell style="rounded=1;whiteSpace=wrap;html=1;labelBackgroundColor=none;fillColor=#63BEF2;fontColor=#ffffff;align=center;arcSize=6;strokeColor=#2086C9;metaEdit=1;resizable=0;points=[[0.25,0,0],[0.5,0,0],[0.75,0,0],[1,0.25,0],[1,0.5,0],[1,0.75,0],[0.75,1,0],[0.5,1,0],[0.25,1,0],[0,0.75,0],[0,0.5,0],[0,0.25,0]];" vertex="1" parent="HnjWuw0NQ6Y7B58xEVIn-1">
            <mxGeometry x="60" y="480" width="240" height="120" as="geometry" />
          </mxCell>
        </object>
        <mxCell id="HnjWuw0NQ6Y7B58xEVIn-12" value="" style="sketch=0;points=[[0,0,0],[0.25,0,0],[0.5,0,0],[0.75,0,0],[1,0,0],[0,1,0],[0.25,1,0],[0.5,1,0],[0.75,1,0],[1,1,0],[0,0.25,0],[0,0.5,0],[0,0.75,0],[1,0.25,0],[1,0.5,0],[1,0.75,0]];outlineConnect=0;fontColor=#232F3E;gradientColor=#945DF2;gradientDirection=north;fillColor=#5A30B5;strokeColor=#ffffff;dashed=0;verticalLabelPosition=bottom;verticalAlign=top;align=center;html=1;fontSize=12;fontStyle=0;aspect=fixed;shape=mxgraph.aws4.resourceIcon;resIcon=mxgraph.aws4.managed_streaming_for_kafka;" vertex="1" parent="HnjWuw0NQ6Y7B58xEVIn-1">
          <mxGeometry x="141" y="270" width="78" height="78" as="geometry" />
        </mxCell>
        <object placeholders="1" c4Type="Relationship" id="HnjWuw0NQ6Y7B58xEVIn-13">
          <mxCell style="endArrow=blockThin;html=1;fontSize=10;fontColor=#404040;strokeWidth=1;endFill=1;strokeColor=#828282;elbow=vertical;metaEdit=1;endSize=14;startSize=14;jumpStyle=arc;jumpSize=16;rounded=0;edgeStyle=orthogonalEdgeStyle;exitX=0.475;exitY=1;exitDx=0;exitDy=0;exitPerimeter=0;entryX=0.41;entryY=0.013;entryDx=0;entryDy=0;entryPerimeter=0;" edge="1" parent="HnjWuw0NQ6Y7B58xEVIn-1" source="HnjWuw0NQ6Y7B58xEVIn-2" target="HnjWuw0NQ6Y7B58xEVIn-12">
            <mxGeometry width="240" relative="1" as="geometry">
              <mxPoint x="55" y="230" as="sourcePoint" />
              <mxPoint x="295" y="230" as="targetPoint" />
            </mxGeometry>
          </mxCell>
        </object>
        <mxCell id="HnjWuw0NQ6Y7B58xEVIn-15" value="Send message" style="edgeLabel;html=1;align=center;verticalAlign=middle;resizable=0;points=[];" vertex="1" connectable="0" parent="HnjWuw0NQ6Y7B58xEVIn-13">
          <mxGeometry x="-0.2158" y="-3" relative="1" as="geometry">
            <mxPoint as="offset" />
          </mxGeometry>
        </mxCell>
        <object placeholders="1" c4Type="Relationship" id="HnjWuw0NQ6Y7B58xEVIn-14">
          <mxCell style="endArrow=blockThin;html=1;fontSize=10;fontColor=#404040;strokeWidth=1;endFill=1;strokeColor=#828282;elbow=vertical;metaEdit=1;endSize=14;startSize=14;jumpStyle=arc;jumpSize=16;rounded=0;edgeStyle=orthogonalEdgeStyle;exitX=0.5;exitY=0;exitDx=0;exitDy=0;exitPerimeter=0;" edge="1" parent="HnjWuw0NQ6Y7B58xEVIn-1" source="HnjWuw0NQ6Y7B58xEVIn-11" target="HnjWuw0NQ6Y7B58xEVIn-12">
            <mxGeometry width="240" relative="1" as="geometry">
              <mxPoint x="85" y="370" as="sourcePoint" />
              <mxPoint x="325" y="370" as="targetPoint" />
              <Array as="points">
                <mxPoint x="180" y="380" />
                <mxPoint x="180" y="380" />
              </Array>
            </mxGeometry>
          </mxCell>
        </object>
        <mxCell id="HnjWuw0NQ6Y7B58xEVIn-16" value="Read message" style="edgeLabel;html=1;align=center;verticalAlign=middle;resizable=0;points=[];" vertex="1" connectable="0" parent="HnjWuw0NQ6Y7B58xEVIn-14">
          <mxGeometry x="-0.1667" y="-4" relative="1" as="geometry">
            <mxPoint as="offset" />
          </mxGeometry>
        </mxCell>
        <mxCell id="HnjWuw0NQ6Y7B58xEVIn-3" value="aim_contact.contact&lt;br&gt;[MongoDB]" style="strokeWidth=2;html=1;shape=mxgraph.flowchart.database;whiteSpace=wrap;" vertex="1" parent="1">
          <mxGeometry x="40" y="242.5" width="120" height="140" as="geometry" />
        </mxCell>
        <mxCell id="HnjWuw0NQ6Y7B58xEVIn-4" value="aim_search_contact&lt;br&gt;[Elasticsearch]" style="strokeWidth=2;html=1;shape=mxgraph.flowchart.database;whiteSpace=wrap;" vertex="1" parent="1">
          <mxGeometry x="700" y="660" width="120" height="145" as="geometry" />
        </mxCell>
        <object placeholders="1" c4Type="Relationship" id="HnjWuw0NQ6Y7B58xEVIn-5">
          <mxCell style="endArrow=blockThin;html=1;fontSize=10;fontColor=#404040;strokeWidth=1;endFill=1;strokeColor=#828282;elbow=vertical;metaEdit=1;endSize=14;startSize=14;jumpStyle=arc;jumpSize=16;rounded=0;edgeStyle=orthogonalEdgeStyle;exitX=-0.008;exitY=0.392;exitDx=0;exitDy=0;exitPerimeter=0;" edge="1" parent="1" source="HnjWuw0NQ6Y7B58xEVIn-2">
            <mxGeometry width="240" relative="1" as="geometry">
              <mxPoint x="110" y="470" as="sourcePoint" />
              <mxPoint x="160" y="287" as="targetPoint" />
            </mxGeometry>
          </mxCell>
        </object>
        <mxCell id="HnjWuw0NQ6Y7B58xEVIn-6" value="watch" style="edgeLabel;html=1;align=center;verticalAlign=middle;resizable=0;points=[];" vertex="1" connectable="0" parent="HnjWuw0NQ6Y7B58xEVIn-5">
          <mxGeometry x="0.171" y="-2" relative="1" as="geometry">
            <mxPoint as="offset" />
          </mxGeometry>
        </mxCell>
        <object placeholders="1" c4Type="Relationship" id="HnjWuw0NQ6Y7B58xEVIn-7">
          <mxCell style="endArrow=blockThin;html=1;fontSize=10;fontColor=#404040;strokeWidth=1;endFill=1;strokeColor=#828282;elbow=vertical;metaEdit=1;endSize=14;startSize=14;jumpStyle=arc;jumpSize=16;rounded=0;edgeStyle=orthogonalEdgeStyle;exitX=1.008;exitY=0.704;exitDx=0;exitDy=0;exitPerimeter=0;" edge="1" parent="1" source="HnjWuw0NQ6Y7B58xEVIn-3">
            <mxGeometry width="240" relative="1" as="geometry">
              <mxPoint x="130" y="500" as="sourcePoint" />
              <mxPoint x="300" y="341" as="targetPoint" />
            </mxGeometry>
          </mxCell>
        </object>
        <mxCell id="HnjWuw0NQ6Y7B58xEVIn-8" value="event" style="edgeLabel;html=1;align=center;verticalAlign=middle;resizable=0;points=[];" vertex="1" connectable="0" parent="HnjWuw0NQ6Y7B58xEVIn-7">
          <mxGeometry x="-0.1532" y="2" relative="1" as="geometry">
            <mxPoint as="offset" />
          </mxGeometry>
        </mxCell>
        <object placeholders="1" c4Type="Relationship" id="HnjWuw0NQ6Y7B58xEVIn-9">
          <mxCell style="endArrow=blockThin;html=1;fontSize=10;fontColor=#404040;strokeWidth=1;endFill=1;strokeColor=#828282;elbow=vertical;metaEdit=1;endSize=14;startSize=14;jumpStyle=arc;jumpSize=16;rounded=0;edgeStyle=orthogonalEdgeStyle;entryX=0;entryY=0.5;entryDx=0;entryDy=0;entryPerimeter=0;exitX=1;exitY=0.5;exitDx=0;exitDy=0;exitPerimeter=0;" edge="1" parent="1" source="HnjWuw0NQ6Y7B58xEVIn-11" target="HnjWuw0NQ6Y7B58xEVIn-4">
            <mxGeometry width="240" relative="1" as="geometry">
              <mxPoint x="580" y="470" as="sourcePoint" />
              <mxPoint x="670" y="340" as="targetPoint" />
              <Array as="points">
                <mxPoint x="545" y="733" />
                <mxPoint x="623" y="733" />
              </Array>
            </mxGeometry>
          </mxCell>
        </object>
        <mxCell id="HnjWuw0NQ6Y7B58xEVIn-10" value="bulk" style="edgeLabel;html=1;align=center;verticalAlign=middle;resizable=0;points=[];" vertex="1" connectable="0" parent="HnjWuw0NQ6Y7B58xEVIn-9">
          <mxGeometry x="0.2642" y="-2" relative="1" as="geometry">
            <mxPoint as="offset" />
          </mxGeometry>
        </mxCell>
      </root>
    </mxGraphModel>
  </diagram>
</mxfile>
